HIERARCHY
ROOT hip
{
	OFFSET 0.000000 0.000000 0.000000 
	CHANNELS 6 Xposition Yposition Zposition Xrotation Zrotation Yrotation
	JOINT abdomen
	{
		OFFSET 0.000000 3.402643 0.000000 
		CHANNELS 3 Xrotation Zrotation Yrotation
		JOINT chest
		{
			OFFSET 0.000000 8.438565 -0.680529 
			CHANNELS 3 Xrotation Zrotation Yrotation
			JOINT neck
			{
				OFFSET 0.000000 10.207942 -0.272212 
				CHANNELS 3 Xrotation Zrotation Yrotation
				JOINT head
				{
					OFFSET 0.000000 3.130431 0.000000 
					CHANNELS 3 Xrotation Zrotation Yrotation
					End Site
					{
						OFFSET 0.000000 3.130435 0.000000 
					}
				}
			}
			JOINT lCollar
			{
				OFFSET 3.470700 6.669187 -0.816635 
				CHANNELS 3 Yrotation Zrotation Xrotation
				JOINT lShldr
				{
					OFFSET 3.198488 0.000000 0.000000 
					CHANNELS 3 Zrotation Yrotation Xrotation
					JOINT lForeArm
					{
						OFFSET 10.139888 0.000000 0.000000 
						CHANNELS 3 Yrotation Zrotation Xrotation
						JOINT lHand
						{
							OFFSET 8.370511 0.000000 0.000000 
							CHANNELS 3 Zrotation Yrotation Xrotation
							End Site
							{
								OFFSET 4.083176 0.000000 0.000000 
							}
						}
					}
				}
			}
			JOINT rCollar
			{
				OFFSET -3.470700 6.669187 -0.816635 
				CHANNELS 3 Yrotation Zrotation Xrotation
				JOINT rShldr
				{
					OFFSET -3.198488 0.000000 0.000000 
					CHANNELS 3 Zrotation Yrotation Xrotation
					JOINT rForeArm
					{
						OFFSET -10.139888 0.000000 0.000000 
						CHANNELS 3 Yrotation Zrotation Xrotation
						JOINT rHand
						{
							OFFSET -8.370511 0.000000 0.000000 
							CHANNELS 3 Zrotation Yrotation Xrotation
							End Site
							{
								OFFSET -4.083176 0.000000 0.000000 
							}
						}
					}
				}
			}
		}
	}
	JOINT lThigh
	{
		OFFSET 5.308129 -1.633274 1.361059 
		CHANNELS 3 Xrotation Zrotation Yrotation
		JOINT lShin
		{
			OFFSET -2.041588 -20.007561 0.000000 
			CHANNELS 3 Xrotation Zrotation Yrotation
			JOINT lFoot
			{
				OFFSET 0.000000 -19.190928 -1.224953 
				CHANNELS 3 Xrotation Yrotation Zrotation
				End Site
				{
					OFFSET 0.000000 -2.449906 4.627600 
				}
			}
		}
	}
	JOINT rThigh
	{
		OFFSET -5.308129 -1.633274 1.361059 
		CHANNELS 3 Xrotation Zrotation Yrotation
		JOINT rShin
		{
			OFFSET 2.041588 -20.007561 0.000000 
			CHANNELS 3 Xrotation Zrotation Yrotation
			JOINT rFoot
			{
				OFFSET 0.000000 -19.190928 -1.224953 
				CHANNELS 3 Xrotation Yrotation Zrotation
				End Site
				{
					OFFSET 0.000000 -2.449906 4.627600 
				}
			}
		}
	}
}
MOTION
Frames: 20
Frame Time: 0.016667
-1.058566 44.417030 -1.543012 -2.795280 -5.325720 -11.303100 -14.792300 2.466070 -2.168010 17.673901 2.048190 -0.864768 26.654533 -25.707949 -18.992107 18.958000 5.443400 -5.878580 2.000000 -2.000000 0.000000 -24.936399 4.518440 138.302994 106.758003 -0.172612 0.150066 0.070014 -0.086598 -169.587997 -2.000000 2.000000 0.000000 20.050900 -10.874600 125.179001 -110.967003 0.169421 0.108790 -0.054653 0.009020 -140.143997 -4.802877 6.594838 0.442459 29.740009 3.685725 1.956227 -23.812426 10.941371 5.319404 5.853362 3.378682 8.305108 3.636270 -4.247610 -0.115494 -16.678444 -11.071562 -3.017444 
-1.070020 44.415997 -1.555582 -2.766120 -5.384380 -11.361600 -14.743800 2.516550 -2.198650 17.751900 2.155620 -0.876990 26.655949 -25.325684 -19.178553 18.843000 5.541010 -6.030850 2.000000 -2.000000 0.000000 -23.577600 4.380250 137.473007 107.833000 -0.169990 0.149249 0.069676 -0.086068 -169.363007 -2.000000 2.000000 0.000000 18.781099 -10.171400 125.121002 -111.533997 0.168251 0.108335 -0.054576 0.007545 -139.617004 -4.801082 6.681509 0.434216 29.730370 3.683955 1.955880 -23.809704 10.942798 5.331829 5.778770 3.428173 8.400501 3.663308 -4.238258 -0.135067 -16.698771 -11.066460 -2.994589 
-1.077326 44.414444 -1.561390 -2.746590 -5.403980 -11.391800 -14.714500 2.522980 -2.208710 17.771400 2.194670 -0.878151 26.750475 -25.182272 -19.346954 18.833700 5.560160 -6.104950 2.000000 -2.000000 0.000000 -22.658600 4.164320 136.848007 108.584000 -0.168164 0.148648 0.069034 -0.094816 -168.932999 -2.000000 2.000000 0.000000 17.960600 -9.692810 125.072998 -111.973000 0.167346 0.107974 -0.054544 0.006835 -139.363007 -4.803413 6.715832 0.435237 29.700569 3.690043 1.967274 -23.829441 10.924654 5.322627 5.758739 3.463679 8.490499 3.647391 -4.238600 -0.125039 -16.652546 -11.148519 -2.992518 
-1.084632 44.412907 -1.567198 -2.727060 -5.423580 -11.422000 -14.695200 2.542140 -2.212620 17.790800 2.243480 -0.889521 26.837994 -25.033228 -19.490509 18.824400 5.579310 -6.179050 2.000000 -2.000000 0.000000 -21.739599 3.967900 136.214005 109.335999 -0.166346 0.148024 0.068400 -0.093793 -168.503998 -2.000000 2.000000 0.000000 17.140100 -9.223980 125.014999 -112.412003 0.166445 0.107607 -0.054516 0.006125 -139.108994 -4.797565 6.753716 0.454920 29.690802 3.689407 1.967201 -23.847960 10.904846 5.323685 5.728711 3.501717 8.550240 3.631907 -4.238486 -0.114975 -16.601732 -11.212186 -3.000507 
-1.096715 44.408669 -1.567356 -2.736690 -5.384510 -11.481500 -14.685700 2.570620 -2.219510 17.800501 2.331290 -0.883593 27.055004 -24.803226 -19.584732 18.846901 5.682610 -6.208400 2.000000 -2.000000 0.000000 -20.771601 3.712810 135.520996 110.274002 -0.164091 0.147211 0.077398 -0.092532 -167.975998 -2.000000 2.000000 0.000000 16.212099 -8.647730 124.957001 -112.911003 0.165427 0.107181 -0.054482 0.005168 -138.766998 -4.754294 6.738598 0.543132 29.631887 3.691851 1.977959 -23.851650 10.848692 5.298552 5.715499 3.468442 8.643638 3.633004 -4.238535 -0.135179 -16.675171 -11.245632 -3.015869 
-1.108800 44.404438 -1.567501 -2.736520 -5.345500 -11.532200 -14.676300 2.593080 -2.214780 17.800301 2.428830 -0.888281 27.286953 -24.572134 -19.677757 18.869499 5.785890 -6.246470 2.000000 -2.000000 0.000000 -19.813400 3.467480 134.819000 111.210999 -0.161849 0.146362 0.076628 -0.091240 -167.438995 -2.000000 2.000000 0.000000 15.284100 -8.081210 124.879997 -113.399002 0.164432 0.106756 -0.054454 0.004211 -138.425995 -4.721847 6.738500 0.640604 29.603405 3.682699 1.975823 -23.853456 10.787970 5.293232 5.709500 3.442171 8.737998 3.634547 -4.236718 -0.125256 -16.736277 -11.279894 -3.030682 
-1.123888 44.401985 -1.565749 -2.726750 -5.355290 -11.561900 -14.667400 2.635260 -2.185080 17.809900 2.477620 -0.870671 27.418859 -24.443802 -19.753151 18.890301 5.823080 -6.263820 2.000000 -2.000000 0.000000 -19.148399 3.105290 134.302002 111.865997 -0.160293 0.145748 0.076241 -0.090579 -167.166000 -2.000000 2.000000 0.000000 14.678300 -7.709950 124.753998 -113.740997 0.163738 0.106453 -0.054434 0.003391 -138.132996 -4.699058 6.758639 0.709153 29.572536 3.691099 1.968459 -23.840803 10.787658 5.303287 5.724658 3.462548 8.800961 3.621384 -4.235126 -0.124778 -16.752623 -11.303382 -3.057492 
-1.138975 44.399540 -1.563997 -2.726750 -5.355290 -11.591200 -14.648500 2.664720 -2.161960 17.809799 2.536150 -0.863708 27.541702 -24.308701 -19.836926 18.900900 5.851110 -6.284640 2.000000 -2.000000 0.000000 -18.483400 2.752850 133.774994 112.519997 -0.158744 0.145116 0.075870 -0.089940 -166.901993 -2.000000 2.000000 0.000000 14.062700 -7.348430 124.617996 -114.072998 0.163065 0.106155 -0.054419 0.002598 -137.850006 -4.685150 6.796218 0.779256 29.551807 3.700384 1.970992 -23.795858 10.768776 5.284723 5.709763 3.475973 8.859413 3.624600 -4.232377 -0.125221 -16.778603 -11.303603 -3.050307 
-1.160859 44.396976 -1.557312 -2.726580 -5.316280 -11.514900 -14.677800 2.670320 -2.175190 17.770599 2.575080 -0.867331 27.628160 -24.170662 -19.871460 18.862499 5.880570 -6.281160 2.000000 -2.000000 0.000000 -17.759501 2.331840 133.112000 113.399002 -0.156675 0.144239 0.075489 -0.089276 -166.628998 -2.000000 2.000000 0.000000 13.349400 -6.947790 124.433998 -114.589996 0.162020 0.105683 -0.054409 0.001860 -137.585999 -4.690338 6.763617 0.719102 29.552809 3.691549 1.968765 -23.800499 10.759184 5.280068 5.723769 3.456973 8.839548 3.631175 -4.226741 -0.124650 -16.807018 -11.330394 -3.068878 
-1.182731 44.394405 -1.550650 -2.726370 -5.267500 -11.448900 -14.697600 2.688930 -2.181220 17.721701 2.604240 -0.880737 27.713934 -24.019218 -19.890923 18.833900 5.909750 -6.286480 2.000000 -2.000000 0.000000 -17.025900 1.920610 132.447998 114.288002 -0.154597 0.143320 0.075125 -0.088634 -166.365005 -2.000000 2.000000 0.000000 12.636000 -6.556910 124.238998 -115.117996 0.160960 0.105192 -0.054402 0.001122 -137.322006 -4.706635 6.748065 0.650955 29.533918 3.681079 1.956470 -23.811281 10.755141 5.289924 5.724356 3.442761 8.808622 3.637223 -4.234422 -0.125024 -16.831339 -11.349895 -3.070732 
-1.207164 44.393764 -1.537181 -2.696990 -5.277380 -11.402300 -14.668500 2.690190 -2.149690 17.770700 2.555570 -0.856618 27.912230 -23.942026 -19.967854 18.893000 5.917460 -6.277950 2.000000 -2.000000 0.000000 -16.399900 1.411840 131.852997 114.874001 -0.153235 0.142697 0.074803 -0.088062 -166.130997 -2.000000 2.000000 0.000000 12.147000 -6.331810 123.877998 -115.528000 0.160138 0.104803 -0.054403 0.001176 -137.341995 -4.708910 6.774652 0.611380 29.522642 3.697229 1.970415 -23.801453 10.761334 5.270059 5.753073 3.494201 8.787791 3.615856 -4.239351 -0.115469 -16.817684 -11.373190 -3.071982 
-1.231586 44.393124 -1.523711 -2.677370 -5.277470 -11.345500 -14.639600 2.694870 -2.109020 17.809900 2.506890 -0.833010 28.094599 -23.865389 -20.041302 18.961700 5.915440 -6.261140 2.000000 -2.000000 0.000000 -15.773800 0.903071 131.248993 115.469002 -0.151857 0.142049 0.074484 -0.087488 -165.895996 -2.000000 2.000000 0.000000 11.658000 -6.106730 123.516998 -115.947998 0.159300 0.104399 -0.054403 0.001231 -137.360992 -4.717193 6.810001 0.562943 29.513115 3.687496 1.948601 -23.817457 10.742349 5.281329 5.851896 3.559901 8.785822 3.589752 -4.235892 -0.115215 -16.874941 -11.398070 -3.124347 
-1.270298 44.395046 -1.497133 -2.638060 -5.258120 -11.310900 -14.630300 2.702700 -2.060300 17.858801 2.487480 -0.800660 28.335997 -23.755205 -19.998232 19.011900 5.951730 -6.177700 2.000000 -2.000000 0.000000 -15.049800 0.345317 130.537003 116.290001 -0.149970 0.141133 0.074405 -0.087345 -165.837997 -2.000000 2.000000 0.000000 11.061300 -5.754580 123.068001 -116.503998 0.158194 0.103854 -0.054402 0.001122 -137.322006 -4.725388 6.817271 0.554346 29.463100 3.694655 1.950672 -23.768986 10.753156 5.282095 5.842385 3.575195 8.786427 3.595559 -4.244269 -0.125396 -16.929001 -11.429334 -3.127157 
-1.309010 44.396976 -1.470554 -2.598710 -5.229020 -11.286500 -14.630900 2.713810 -2.002970 17.917500 2.458330 -0.767473 28.561300 -23.645515 -19.955481 19.062201 5.987990 -6.094200 2.000000 -2.000000 0.000000 -14.316100 -0.212420 129.824005 117.120003 -0.148074 0.140179 0.074326 -0.087201 -165.779007 -2.000000 2.000000 0.000000 10.445100 -5.412200 122.620003 -117.051003 0.157112 0.103308 -0.054402 0.001012 -137.283005 -4.743145 6.840540 0.554849 29.444160 3.691640 1.959818 -23.735966 10.758447 5.270696 5.829449 3.592447 8.806067 3.598933 -4.228592 -0.124931 -16.947418 -11.470407 -3.152778 
-1.339589 44.398380 -1.446367 -2.569330 -5.238900 -11.249700 -14.670300 2.708060 -1.963600 17.898100 2.399760 -0.746067 28.714516 -23.632833 -19.856010 19.071400 5.968830 -5.981040 2.000000 -2.000000 0.000000 -13.700000 -0.652556 129.376007 117.685997 -0.146788 0.139513 0.074181 -0.086938 -165.671997 -2.000000 2.000000 0.000000 10.356700 -5.499760 122.364998 -117.880997 0.155480 0.102460 -0.054401 0.000958 -137.264008 -4.751802 6.889649 0.487088 29.424345 3.689330 1.949604 -23.742346 10.789880 5.292386 5.834531 3.640768 8.802343 3.585156 -4.240272 -0.125401 -17.006939 -11.486418 -3.168777 
-1.370189 44.399807 -1.422169 -2.530150 -5.248810 -11.204000 -14.709700 2.705740 -1.915070 17.878599 2.341190 -0.724620 28.876442 -23.626539 -19.748257 19.090500 5.949390 -5.866870 2.000000 -2.000000 0.000000 -13.074200 -1.073170 128.917007 118.251999 -0.145509 0.138834 0.074036 -0.086674 -165.563995 -2.000000 2.000000 0.000000 10.268400 -5.577560 122.111000 -118.700996 0.153879 0.101598 -0.054401 0.000930 -137.253998 -4.744802 6.911779 0.438681 29.394487 3.695767 1.960565 -23.745941 10.822831 5.324743 5.825222 3.691516 8.806758 3.584315 -4.240983 -0.125473 -17.039885 -11.486105 -3.182904 
-1.414204 44.398773 -1.378560 -2.481190 -5.268520 -11.207600 -14.778100 2.668670 -1.849000 17.849501 2.214330 -0.680768 29.011379 -23.774839 -19.475269 19.087099 5.836230 -5.613960 2.000000 -2.000000 0.000000 -12.135900 -1.483980 128.479004 118.897003 -0.144062 0.138045 0.073801 -0.086241 -165.388000 -2.000000 2.000000 0.000000 9.662360 -5.303820 121.867996 -119.219002 0.152876 0.101043 -0.054407 0.001641 -137.507996 -4.585822 6.723347 0.343827 29.338064 3.744639 1.934338 -23.952272 10.979718 5.565706 5.830770 3.751319 8.833630 3.586175 -4.238920 -0.115524 -17.125076 -11.498983 -3.201003 
-1.458217 44.397877 -1.334950 -2.432270 -5.297980 -11.220700 -14.836700 2.625760 -1.770630 17.830200 2.087480 -0.646195 29.148642 -23.937174 -19.194027 19.093599 5.722790 -5.360090 2.000000 -2.000000 0.000000 -11.197500 -1.885050 128.020004 119.541000 -0.142624 0.137241 0.073554 -0.085784 -165.203003 -2.000000 2.000000 0.000000 9.056340 -5.039830 121.613998 -119.737000 0.151878 0.100479 -0.054416 0.002352 -137.761993 -4.676793 7.013778 0.253483 29.304264 3.703256 1.943638 -23.827105 10.979153 5.401419 5.826803 3.821408 8.879630 3.602968 -4.225154 -0.124583 -17.190395 -11.485792 -3.213097 
-1.496940 44.393124 -1.294048 -2.481430 -5.327060 -11.224600 -14.876500 2.649210 -1.708660 17.800900 2.067920 -0.607262 29.227545 -24.053946 -18.780993 19.082399 5.675930 -5.070960 2.000000 -2.000000 0.000000 -10.581700 -2.246880 127.679001 119.921997 -0.141778 0.136758 0.073541 -0.085760 -165.192993 -2.000000 2.000000 0.000000 8.118790 -4.600380 121.614998 -119.599998 0.152141 0.100629 -0.054399 0.000575 -137.126999 -4.418420 6.809412 0.255128 29.239002 3.749997 1.936354 -23.960619 11.068383 5.635810 5.946469 3.864822 8.926782 3.612407 -4.217094 -0.124487 -17.270369 -11.513511 -3.215910 
-1.535686 44.388493 -1.253134 -2.530590 -5.356130 -11.228600 -14.906700 2.676220 -1.637040 17.781401 2.038620 -0.577253 29.297636 -24.164358 -18.376459 19.080999 5.628780 -4.772050 2.000000 -2.000000 0.000000 -9.956030 -2.598950 127.328003 120.303001 -0.140936 0.136269 0.073515 -0.085712 -165.173996 -2.000000 2.000000 0.000000 7.181230 -4.160910 121.606003 -119.453003 0.152423 0.100789 -0.054403 -0.001230 -136.481995 -4.282744 6.861187 0.254902 29.198795 3.753672 1.927216 -23.910265 11.086300 5.629800 6.059978 3.917598 8.974724 3.610481 -4.231592 -0.124827 -17.326439 -11.517277 -3.225306 
